<?xml version="1.0" encoding="UTF-8" standalone="no"?>
<svg width="256px" height="256px" viewBox="0 0 256 256" version="1.1" xmlns="http://www.w3.org/2000/svg" xmlns:xlink="http://www.w3.org/1999/xlink" xmlns:sketch="http://www.bohemiancoding.com/sketch/ns">
    <g id="Page-1" stroke="none" stroke-width="1" fill="#000" fill-rule="evenodd" sketch:type="MSPage">
        <path d="M128,256 C198.692448,256 256,198.692448 256,128 C256,57.307552 198.692448,0 128,0 C57.307552,0 0,57.307552 0,128 C0,198.692448 57.307552,256 128,256 Z M90.7376467,148.122937 C88.153659,148.122937 85.6152873,147.669923 83.1929217,146.776479 L86.0053825,139.145241 C87.5240799,139.705217 89.1167066,139.988743 90.7372535,139.988743 C92.5312197,139.988743 94.2807496,139.643871 95.9370814,138.96435 L99.0259908,146.48902 C96.3853763,147.572793 93.59651,148.122937 90.7376467,148.122937 L90.7376467,148.122937 Z M150.591705,142.715084 L139.13423,136.190427 L143.159054,129.121917 L154.616922,135.646575 L150.591705,142.715084 L150.591705,142.715084 Z M106.028043,142.579023 L101.84671,135.602138 L113.156719,128.824233 L117.338052,135.801905 L106.028043,142.579023 L106.028043,142.579023 Z M133.073991,132.857315 C131.396424,132.156952 129.622906,131.801069 127.801806,131.801069 C126.208,131.801856 124.640541,132.076731 123.143865,132.618224 L120.376627,124.96929 C122.763207,124.106126 125.261075,123.667662 127.80102,123.667269 C130.70432,123.667269 133.531724,124.233536 136.20773,125.349948 L133.073991,132.857315 L133.073991,132.857315 Z M183.665253,131.728713 C179.973112,131.728713 176.980154,134.721671 176.980154,138.413813 C176.980154,142.105954 179.973112,145.098912 183.665253,145.098912 C187.357395,145.098912 190.350353,142.105954 190.350353,138.413813 C190.350353,134.721671 187.357002,131.728713 183.665253,131.728713 L183.665253,131.728713 Z M72.7712442,131.728713 C69.0791029,131.728713 66.0861444,134.721671 66.0861444,138.413813 C66.0861444,142.105954 69.0791029,145.098912 72.7712442,145.098912 C76.4633856,145.098912 79.4563441,142.105954 79.4563441,138.413813 C79.4563441,134.721671 76.4629923,131.728713 72.7712442,131.728713 L72.7712442,131.728713 Z M209.204301,70.9033487 C209.204301,56.7545315 197.733063,45.2829002 183.583853,45.2829002 C169.433856,45.2829002 157.962224,56.7545315 157.962224,70.9033487 C157.962224,91.9441106 178.113868,94.1690691 183.583853,126.170249 C189.053837,94.1682826 209.204301,91.9441106 209.204301,70.9033487 L209.204301,70.9033487 Z M174.394986,70.2824209 C174.394986,65.2076436 178.508289,61.0935545 183.583459,61.0935545 C188.657843,61.0935545 192.771539,65.2076436 192.771539,70.2824209 C192.771539,75.3564117 188.657843,79.4701075 183.583459,79.4701075 C178.508289,79.4701075 174.394986,75.3564117 174.394986,70.2824209 L174.394986,70.2824209 Z M197.387404,119.364817 L197.387404,175.775656 L167.90926,191.781751 L167.90926,156.306286 L162.001598,156.306286 L162.001598,191.136442 L129.832111,170.330052 L129.832111,140.674949 L124.197751,140.674949 L124.197751,170.330052 L92.8167127,191.136442 L92.8167127,156.306286 L86.9074777,156.306286 L86.9074777,191.781751 L59.0058372,175.775656 L59.0058372,86.5366513 L86.9074777,101.456614 L86.9074777,131.335472 L92.8167127,131.335472 L92.8167127,101.727558 L124.197751,85.4532719 L124.197751,116.490618 L129.832111,116.490618 L129.832111,85.4532719 L157.732965,99.5682704 C153.68494,94.4687189 149.472541,88.7859908 147.42926,81.0112197 L127.014931,70.6261137 L90.1245837,89.7938679 L47.1889401,66.9465561 L47.1889401,182.668387 L90.124977,207.178323 L127.015324,182.671533 L164.693333,207.178323 L209.204301,182.668387 L209.204301,99.8565161 C208.943189,100.184479 208.682863,100.510869 208.424504,100.834507 C204.184578,106.142869 200.124756,111.230624 197.387404,119.364817 L197.387404,119.364817 Z" id="Oval-1" fill="#000000" sketch:type="MSShapeGroup"></path>
    </g>
</svg>
