<svg width="256" height="256" viewBox="0 0 256 256" xmlns="http://www.w3.org/2000/svg"><path d="M128 256c70.692 0 128-57.308 128-128C256 57.308 198.692 0 128 0 57.308 0 0 57.308 0 128c0 70.692 57.308 128 128 128zM90.738 148.123c-2.584 0-5.123-.453-7.545-1.347l2.812-7.63c1.52.56 3.112.843 4.732.843 1.794 0 3.544-.346 5.2-1.026l3.09 7.525a21.725 21.725 0 0 1-8.29 1.633zm59.854-5.408l-11.458-6.525 4.025-7.068 11.457 6.525-4.025 7.068zm-44.564-.136l-4.18-6.978 11.31-6.778 4.18 6.978-11.31 6.777zm27.046-9.723a13.673 13.673 0 0 0-9.93-.24l-2.767-7.647a21.777 21.777 0 0 1 7.424-1.303c2.904 0 5.732.567 8.408 1.683l-3.134 7.507zm50.59-1.128a6.685 6.685 0 1 0 0 13.37 6.685 6.685 0 0 0 0-13.37zm-110.893 0a6.685 6.685 0 1 0 0 13.37 6.685 6.685 0 0 0 0-13.37zm136.434-60.827c0-14.148-11.47-25.62-25.62-25.62s-25.622 11.472-25.622 25.62c0 21.04 20.152 23.266 25.622 55.267 5.47-32.002 25.62-34.226 25.62-55.267zm-34.81-.62a9.188 9.188 0 1 1 18.378-.002 9.188 9.188 0 0 1-18.377.002zm22.993 49.082v56.41l-29.478 16.007v-35.476H162v34.83l-32.17-20.806v-29.655h-5.634v29.655l-31.38 20.806v-34.83h-5.91v35.476l-27.902-16.006v-89.24l27.9 14.92v29.88h5.91v-29.608L124.2 85.453v31.038h5.634V85.454l27.9 14.115c-4.047-5.1-8.26-10.782-10.303-18.557l-20.415-10.384-36.89 19.168L47.19 66.947v115.72l42.935 24.51 36.89-24.505 37.678 24.506 44.51-24.51v-82.81l-.778.977c-4.24 5.308-8.3 10.396-11.038 18.53z" fill-rule="evenodd"/></svg>